<?xml version="1.0" standalone="no"?>
<!DOCTYPE svg PUBLIC "-//W3C//DTD SVG 20010904//EN"
 "http://www.w3.org/TR/2001/REC-SVG-20010904/DTD/svg10.dtd">
<svg version="1.0" xmlns="http://www.w3.org/2000/svg"
 width="700.000000pt" height="700.000000pt" viewBox="0 0 700.000000 700.000000"
 preserveAspectRatio="xMidYMid meet">
<metadata>
Created by potrace 1.11, written by Peter Selinger 2001-2013
</metadata>
<g transform="translate(0.000000,700.000000) scale(0.100000,-0.100000)"
fill="#000000" stroke="none">
<path d="M5465 6030 c-495 -44 -850 -199 -1136 -498 -285 -296 -429 -694 -429
-1182 0 -389 97 -737 282 -1008 75 -109 273 -304 387 -380 229 -153 499 -247
811 -282 125 -15 431 -14 545 0 222 27 457 94 648 183 l97 46 0 335 c0 185 -4
336 -8 336 -5 0 -38 -19 -73 -41 -160 -104 -372 -192 -547 -229 -126 -27 -357
-37 -477 -21 -410 55 -685 335 -772 786 -24 126 -24 425 1 550 81 416 303 674
661 767 79 20 113 23 285 23 166 0 210 -4 297 -23 192 -43 339 -102 512 -205
61 -37 113 -67 116 -67 3 0 5 151 5 335 l0 335 -72 36 c-168 84 -415 159 -623
188 -142 19 -383 27 -510 16z"/>
<path d="M360 4355 l0 -1625 420 0 420 0 0 685 0 685 615 0 615 0 0 -685 0
-685 420 0 420 0 0 1625 0 1625 -420 0 -420 0 0 -620 0 -620 -615 0 -615 0 0
620 0 620 -420 0 -420 0 0 -1625z"/>
<path d="M6285 2649 c-269 -34 -595 -178 -595 -263 0 -44 27 -49 168 -32 441
53 714 38 787 -43 61 -69 3 -348 -154 -748 -60 -152 -63 -186 -16 -191 76 -7
245 186 354 404 108 216 166 437 166 636 0 120 -1 128 -24 152 -56 60 -239 97
-471 95 -80 -1 -176 -5 -215 -10z"/>
<path d="M16 2504 c-32 -31 -20 -65 47 -127 277 -262 751 -578 1162 -777 974
-471 2041 -624 3110 -445 572 96 1146 290 1596 540 148 82 417 262 436 292 28
43 22 91 -15 124 -48 43 -87 39 -255 -27 -407 -161 -795 -276 -1209 -359 -885
-176 -1794 -176 -2676 1 -711 143 -1368 382 -1993 725 -130 71 -174 83 -203
53z"/>
</g>
</svg>
